# xmcd CD database file
#
# Track frame offsets:
#	150
#	16645
#	31163
#	45588
#	58645
#	75711
#	95549
#	112371
#	129482
#	147535
#	158598
#	178038
#	195763
#	211593
#	226715
#	243020
#	258610
#	274318
#	290090
#
# Disc length: 4128 seconds
#
# Revision: 0
# Processed by: cddbd v1.5.2PL0 Copyright (c) Steve Scherf et al.
# Submitted via: CDex 1.70beta2
#
DISCID=00101e13
DTITLE=Juice Newton - Emotion
DYEAR=1900
DGENRE=Country
TTITLE0=First Time Caller
TTITLE1=Tell Me True
TTITLE2=Emotions
TTITLE3=Walkin' Into Trouble
TTITLE4=If I Didn't Love You
TTITLE5=I Still Love You
TTITLE6=Someone Believed
TTITLE7=Old Bye And Bye
TTITLE8='Til You Cry
TTITLE9=When Love Comes Around The Bend
TTITLE10=Goin' To Work
TTITLE11=I Ain't Gonna Cry No More
TTITLE12=The Moment You Were Mine
TTITLE13=(And) Then He Kissed Me
TTITLE14=I'm Only Walkin'
TTITLE15=Say You'll Be Mine
TTITLE16=You're Making It Easy
TTITLE17=Gonna Find You
TTITLE18=Love Is The Only Chain
EXTD=
EXTT0=
EXTT1=
EXTT2=
EXTT3=
EXTT4=
EXTT5=
EXTT6=
EXTT7=
EXTT8=
EXTT9=
EXTT10=
EXTT11=
EXTT12=
EXTT13=
EXTT14=
EXTT15=
EXTT16=
EXTT17=
EXTT18=
PLAYORDER=
